<svg xmlns="http://www.w3.org/2000/svg" xmlns:xlink="http://www.w3.org/1999/xlink" width="500" zoomAndPan="magnify" viewBox="0 0 375 374.999991" height="500" preserveAspectRatio="xMidYMid meet" version="1.0"><defs><g/><clipPath id="610620c2fc"><path d="M 215.148438 8.972656 L 263.363281 8.972656 L 263.363281 57.1875 L 215.148438 57.1875 Z M 215.148438 8.972656 " clip-rule="nonzero"/></clipPath><clipPath id="86f2fb1a6c"><path d="M 239.253906 8.972656 C 225.941406 8.972656 215.148438 19.765625 215.148438 33.082031 C 215.148438 46.394531 225.941406 57.1875 239.253906 57.1875 C 252.570312 57.1875 263.363281 46.394531 263.363281 33.082031 C 263.363281 19.765625 252.570312 8.972656 239.253906 8.972656 Z M 239.253906 8.972656 " clip-rule="nonzero"/></clipPath><clipPath id="ff6c9cedcb"><path d="M 121.398438 234.628906 L 187.398438 234.628906 L 187.398438 267.628906 L 121.398438 267.628906 Z M 121.398438 234.628906 " clip-rule="nonzero"/></clipPath><clipPath id="93bea2c47e"><path d="M 121.398438 70.164062 L 263.148438 70.164062 L 263.148438 211.914062 L 121.398438 211.914062 Z M 121.398438 70.164062 " clip-rule="nonzero"/></clipPath><clipPath id="08fed1ed1e"><path d="M 192.378906 70.164062 C 153.175781 70.164062 121.398438 101.941406 121.398438 141.144531 C 121.398438 180.347656 153.175781 212.125 192.378906 212.125 C 231.578125 212.125 263.359375 180.347656 263.359375 141.144531 C 263.359375 101.941406 231.578125 70.164062 192.378906 70.164062 Z M 192.378906 70.164062 " clip-rule="nonzero"/></clipPath></defs><rect x="-37.5" width="450" fill="#ffffff" y="-37.499999" height="449.999989" fill-opacity="1"/><rect x="-37.5" width="450" fill="#ffffff" y="-37.499999" height="449.999989" fill-opacity="1"/><g clip-path="url(#610620c2fc)"><g clip-path="url(#86f2fb1a6c)"><path fill="#000000" d="M 215.148438 8.972656 L 263.363281 8.972656 L 263.363281 57.1875 L 215.148438 57.1875 Z M 215.148438 8.972656 " fill-opacity="1" fill-rule="nonzero"/></g></g><g clip-path="url(#ff6c9cedcb)"><path fill="#000000" d="M 187.464844 234.628906 C 187.464844 252.882812 172.671875 267.675781 154.417969 267.675781 C 136.164062 267.675781 121.425781 252.882812 121.425781 234.628906 Z M 187.464844 234.628906 " fill-opacity="1" fill-rule="nonzero"/></g><g clip-path="url(#93bea2c47e)"><g clip-path="url(#08fed1ed1e)"><path stroke-linecap="butt" transform="matrix(0.75, 0, 0, 0.75, 121.398073, 70.163991)" fill="none" stroke-linejoin="miter" d="M 94.641117 0.0000958766 C 42.37028 0.0000958766 0.000485562 42.36989 0.000485562 94.640727 C 0.000485562 146.911564 42.37028 189.281358 94.641117 189.281358 C 146.906745 189.281358 189.281748 146.911564 189.281748 94.640727 C 189.281748 42.36989 146.906745 0.0000958766 94.641117 0.0000958766 Z M 94.641117 0.0000958766 " stroke="#000000" stroke-width="78" stroke-opacity="1" stroke-miterlimit="4"/></g></g><g fill="#000000" fill-opacity="1"><g transform="translate(121.654275, 336.791211)"><g><path d="M 21.21875 -35.703125 C 27.269531 -35.703125 31.941406 -34.15625 35.234375 -31.0625 C 38.535156 -27.96875 40.1875 -23.460938 40.1875 -17.546875 C 40.1875 -11.628906 38.535156 -7.125 35.234375 -4.03125 C 31.941406 -0.9375 27.269531 0.609375 21.21875 0.609375 C 15.164062 0.609375 10.5 -0.925781 7.21875 -4 C 3.9375 -7.082031 2.296875 -11.597656 2.296875 -17.546875 C 2.296875 -23.492188 3.9375 -28.003906 7.21875 -31.078125 C 10.5 -34.160156 15.164062 -35.703125 21.21875 -35.703125 Z M 21.21875 -27.28125 C 18.800781 -27.28125 16.960938 -26.550781 15.703125 -25.09375 C 14.453125 -23.632812 13.828125 -21.660156 13.828125 -19.171875 L 13.828125 -15.90625 C 13.828125 -13.425781 14.453125 -11.453125 15.703125 -9.984375 C 16.960938 -8.523438 18.800781 -7.796875 21.21875 -7.796875 C 23.632812 -7.796875 25.476562 -8.523438 26.75 -9.984375 C 28.019531 -11.453125 28.65625 -13.425781 28.65625 -15.90625 L 28.65625 -19.171875 C 28.65625 -21.660156 28.019531 -23.632812 26.75 -25.09375 C 25.476562 -26.550781 23.632812 -27.28125 21.21875 -27.28125 Z M 21.21875 -27.28125 "/></g></g></g><g fill="#000000" fill-opacity="1"><g transform="translate(164.140363, 336.791211)"><g><path d="M 21.625 -27.546875 C 24.75 -27.546875 27.09375 -26.675781 28.65625 -24.9375 C 30.226562 -23.207031 31.015625 -20.707031 31.015625 -17.4375 L 31.015625 0 L 20.859375 0 L 20.859375 -16.21875 C 20.859375 -17.375 20.5625 -18.300781 19.96875 -19 C 19.375 -19.695312 18.53125 -20.046875 17.4375 -20.046875 C 16.1875 -20.046875 15.164062 -19.632812 14.375 -18.8125 C 13.59375 -18 13.203125 -17 13.203125 -15.8125 L 13.203125 0 L 3.0625 0 L 3.0625 -26.921875 L 11.375 -26.921875 L 12.03125 -22.84375 C 13.082031 -24.269531 14.46875 -25.410156 16.1875 -26.265625 C 17.90625 -27.117188 19.71875 -27.546875 21.625 -27.546875 Z M 21.625 -27.546875 "/></g></g></g><g fill="#000000" fill-opacity="1"><g transform="translate(198.159838, 336.791211)"><g><path d="M 21.578125 -0.8125 C 20.179688 2.957031 18.46875 5.816406 16.4375 7.765625 C 14.414062 9.722656 11.585938 10.703125 7.953125 10.703125 C 5.742188 10.703125 3.789062 10.398438 2.09375 9.796875 L 2.09375 3.71875 L 6.171875 3.71875 C 8.722656 3.71875 10.234375 2.476562 10.703125 0 L 0 -26.921875 L 10.90625 -26.921875 L 16.0625 -9.03125 L 16.421875 -9.03125 L 21.171875 -26.921875 L 31.15625 -26.921875 Z M 21.578125 -0.8125 "/></g></g></g><g fill="#000000" fill-opacity="1"><g transform="translate(229.32311, 336.791211)"><g><path d="M 22.59375 0 L 21.9375 -4.078125 C 20.875 -2.617188 19.484375 -1.472656 17.765625 -0.640625 C 16.054688 0.191406 14.25 0.609375 12.34375 0.609375 C 9.21875 0.609375 6.867188 -0.253906 5.296875 -1.984375 C 3.734375 -3.722656 2.953125 -6.222656 2.953125 -9.484375 L 2.953125 -26.921875 L 13.109375 -26.921875 L 13.109375 -10.703125 C 13.109375 -9.546875 13.40625 -8.617188 14 -7.921875 C 14.59375 -7.234375 15.4375 -6.890625 16.53125 -6.890625 C 17.78125 -6.890625 18.796875 -7.296875 19.578125 -8.109375 C 20.359375 -8.921875 20.75 -9.925781 20.75 -11.125 L 20.75 -26.921875 L 30.90625 -26.921875 L 30.90625 0 Z M 22.59375 0 "/></g></g></g></svg>