<svg xmlns="http://www.w3.org/2000/svg" xmlns:xlink="http://www.w3.org/1999/xlink" width="500" zoomAndPan="magnify" viewBox="0 0 375 374.999991" height="500" preserveAspectRatio="xMidYMid meet" version="1.0"><defs><clipPath id="8a351399b8"><path d="M 207.511719 4.488281 L 275.722656 4.488281 L 275.722656 72.699219 L 207.511719 72.699219 Z M 207.511719 4.488281 " clip-rule="nonzero"/></clipPath><clipPath id="904cd7d47f"><path d="M 241.617188 4.488281 C 222.78125 4.488281 207.511719 19.757812 207.511719 38.59375 C 207.511719 57.429688 222.78125 72.699219 241.617188 72.699219 C 260.453125 72.699219 275.722656 57.429688 275.722656 38.59375 C 275.722656 19.757812 260.453125 4.488281 241.617188 4.488281 Z M 241.617188 4.488281 " clip-rule="nonzero"/></clipPath><clipPath id="4f82b43232"><path d="M 74.867188 323.75 L 168.617188 323.75 L 168.617188 370.25 L 74.867188 370.25 Z M 74.867188 323.75 " clip-rule="nonzero"/></clipPath><clipPath id="76719f02e9"><path d="M 74.867188 91.0625 L 275.714844 91.0625 L 275.714844 291.910156 L 74.867188 291.910156 Z M 74.867188 91.0625 " clip-rule="nonzero"/></clipPath><clipPath id="e62cdf3bf9"><path d="M 175.292969 91.0625 C 119.828125 91.0625 74.867188 136.023438 74.867188 191.484375 C 74.867188 246.949219 119.828125 291.910156 175.292969 291.910156 C 230.753906 291.910156 275.714844 246.949219 275.714844 191.484375 C 275.714844 136.023438 230.753906 91.0625 175.292969 91.0625 Z M 175.292969 91.0625 " clip-rule="nonzero"/></clipPath></defs><rect x="-37.5" width="450" fill="#ffffff" y="-37.499999" height="449.999989" fill-opacity="1"/><rect x="-37.5" width="450" fill="#edeae9" y="-37.499999" height="449.999989" fill-opacity="1"/><g clip-path="url(#8a351399b8)"><g clip-path="url(#904cd7d47f)"><path fill="#000000" d="M 207.511719 4.488281 L 275.722656 4.488281 L 275.722656 72.699219 L 207.511719 72.699219 Z M 207.511719 4.488281 " fill-opacity="1" fill-rule="nonzero"/></g></g><g clip-path="url(#4f82b43232)"><path fill="#000000" d="M 168.34375 323.75 C 168.34375 349.578125 147.414062 370.507812 121.585938 370.507812 C 95.757812 370.507812 74.90625 349.578125 74.90625 323.75 Z M 168.34375 323.75 " fill-opacity="1" fill-rule="nonzero"/></g><g clip-path="url(#76719f02e9)"><g clip-path="url(#e62cdf3bf9)"><path stroke-linecap="butt" transform="matrix(0.75, 0, 0, 0.75, 74.868316, 91.060892)" fill="none" stroke-linejoin="miter" d="M 133.899545 0.00214344 C 59.946415 0.00214344 -0.00150518 59.950064 -0.00150518 133.897986 C -0.00150518 207.845907 59.946415 267.799036 133.899545 267.799036 C 207.847467 267.799036 267.795387 207.845907 267.795387 133.897986 C 267.795387 59.950064 207.847467 0.00214344 133.899545 0.00214344 Z M 133.899545 0.00214344 " stroke="#000000" stroke-width="78" stroke-opacity="1" stroke-miterlimit="4"/></g></g></svg>