<svg xmlns="http://www.w3.org/2000/svg" xmlns:xlink="http://www.w3.org/1999/xlink" width="500" zoomAndPan="magnify" viewBox="0 0 375 374.999991" height="500" preserveAspectRatio="xMidYMid meet" version="1.0"><defs><g/></defs><rect x="-37.5" width="450" fill="#ffffff" y="-37.499999" height="449.999989" fill-opacity="1"/><rect x="-37.5" width="450" fill="#edeae9" y="-37.499999" height="449.999989" fill-opacity="1"/><g fill="#000000" fill-opacity="1"><g transform="translate(0.676766, 212.188861)"><g><path d="M 56.046875 -94.3125 C 72.035156 -94.3125 84.382812 -90.222656 93.09375 -82.046875 C 101.8125 -73.878906 106.171875 -61.976562 106.171875 -46.34375 C 106.171875 -30.71875 101.8125 -18.816406 93.09375 -10.640625 C 84.382812 -2.472656 72.035156 1.609375 56.046875 1.609375 C 40.054688 1.609375 27.726562 -2.453125 19.0625 -10.578125 C 10.394531 -18.703125 6.0625 -30.625 6.0625 -46.34375 C 6.0625 -62.0625 10.394531 -73.984375 19.0625 -82.109375 C 27.726562 -90.242188 40.054688 -94.3125 56.046875 -94.3125 Z M 56.046875 -72.078125 C 49.671875 -72.078125 44.820312 -70.144531 41.5 -66.28125 C 38.175781 -62.425781 36.515625 -57.21875 36.515625 -50.65625 L 36.515625 -42.03125 C 36.515625 -35.476562 38.175781 -30.269531 41.5 -26.40625 C 44.820312 -22.539062 49.671875 -20.609375 56.046875 -20.609375 C 62.421875 -20.609375 67.289062 -22.539062 70.65625 -26.40625 C 74.03125 -30.269531 75.71875 -35.476562 75.71875 -42.03125 L 75.71875 -50.65625 C 75.71875 -57.21875 74.03125 -62.425781 70.65625 -66.28125 C 67.289062 -70.144531 62.421875 -72.078125 56.046875 -72.078125 Z M 56.046875 -72.078125 "/></g></g></g><g fill="#000000" fill-opacity="1"><g transform="translate(112.904681, 212.188861)"><g><path d="M 57.125 -72.75 C 65.382812 -72.75 71.582031 -70.457031 75.71875 -65.875 C 79.851562 -61.300781 81.921875 -54.703125 81.921875 -46.078125 L 81.921875 0 L 55.109375 0 L 55.109375 -42.84375 C 55.109375 -45.894531 54.320312 -48.34375 52.75 -50.1875 C 51.175781 -52.03125 48.953125 -52.953125 46.078125 -52.953125 C 42.753906 -52.953125 40.054688 -51.875 37.984375 -49.71875 C 35.921875 -47.5625 34.890625 -44.910156 34.890625 -41.765625 L 34.890625 0 L 8.078125 0 L 8.078125 -71.140625 L 30.046875 -71.140625 L 31.796875 -60.359375 C 34.578125 -64.128906 38.234375 -67.132812 42.765625 -69.375 C 47.304688 -71.625 52.09375 -72.75 57.125 -72.75 Z M 57.125 -72.75 "/></g></g></g><g fill="#000000" fill-opacity="1"><g transform="translate(202.767856, 212.188861)"><g><path d="M 57 -2.15625 C 53.3125 7.8125 48.796875 15.378906 43.453125 20.546875 C 38.109375 25.710938 30.628906 28.296875 21.015625 28.296875 C 15.179688 28.296875 10.019531 27.488281 5.53125 25.875 L 5.53125 9.828125 L 16.296875 9.828125 C 23.035156 9.828125 27.035156 6.550781 28.296875 0 L 0 -71.140625 L 28.828125 -71.140625 L 42.4375 -23.84375 L 43.390625 -23.84375 L 55.921875 -71.140625 L 82.328125 -71.140625 Z M 57 -2.15625 "/></g></g></g><g fill="#000000" fill-opacity="1"><g transform="translate(285.086306, 212.188861)"><g><path d="M 59.6875 0 L 57.9375 -10.78125 C 55.15625 -6.914062 51.492188 -3.882812 46.953125 -1.6875 C 42.421875 0.507812 37.640625 1.609375 32.609375 1.609375 C 24.335938 1.609375 18.132812 -0.675781 14 -5.25 C 9.875 -9.832031 7.8125 -16.4375 7.8125 -25.0625 L 7.8125 -71.140625 L 34.625 -71.140625 L 34.625 -28.296875 C 34.625 -25.242188 35.410156 -22.796875 36.984375 -20.953125 C 38.554688 -19.109375 40.78125 -18.1875 43.65625 -18.1875 C 46.976562 -18.1875 49.671875 -19.265625 51.734375 -21.421875 C 53.804688 -23.578125 54.84375 -26.226562 54.84375 -29.375 L 54.84375 -71.140625 L 81.65625 -71.140625 L 81.65625 0 Z M 59.6875 0 "/></g></g></g></svg>